<svg xmlns="http://www.w3.org/2000/svg" xmlns:xlink="http://www.w3.org/1999/xlink" width="800" height="800" viewBox="0 0 800 800">
  <defs>
    <clipPath id="clip-icon-ernaerung">
      <rect width="800" height="800"/>
    </clipPath>
  </defs>
  <g id="icon-ernaerung" clip-path="url(#clip-icon-ernaerung)">
    <g id="Gruppe_522" data-name="Gruppe 522" transform="translate(187.14 72.467)">
      <path id="Pfad_585" data-name="Pfad 585" d="M83.03,0s83.03,91.73,83.03,204.885S83.03,409.769,83.03,409.769,0,318.039,0,204.885,83.03,0,83.03,0Z" transform="translate(483.822 305.36) rotate(45)" fill="#3fffbf"/>
      <path id="Pfad_586" data-name="Pfad 586" d="M53.89,0s53.89,110.948,53.89,247.81S53.89,495.62,53.89,495.62,0,384.672,0,247.81,53.89,0,53.89,0Z" transform="translate(312.746 611.268) rotate(-149)" fill="#3fffbf"/>
    </g>
    <g id="Gruppe_524" data-name="Gruppe 524" transform="translate(15.86 -13.467)">
      <path id="Pfad_587" data-name="Pfad 587" d="M3888.746,2581.052C3729.928,2694,3832.288,2836.156,3718,2970.328c-26.88,31.547-42.141,58.853-49.619,82.439-7.47-23.586-22.73-50.893-49.613-82.439-114.279-134.172-11.928-276.324-170.745-389.276,111.127,330.688-46.831,504.51,155.4,599.261,0,0-35.282-86.18,14.454-97.046,24.591,128.08,115.476,97.046,115.476,97.046C3935.579,3085.562,3772.758,2925.276,3888.746,2581.052Z" transform="translate(-3283.883 -2443.334)"/>
      <g id="Gruppe_523" data-name="Gruppe 523" transform="translate(268.189 87.467)">
        <path id="Pfad_227" data-name="Pfad 227" d="M3484.812,2632.5h36.138a19.023,19.023,0,1,0,0-38.045h-36.138a19.023,19.023,0,1,0,0,38.045Z" transform="translate(-3386.566 -2405.933)"/>
        <path id="Pfad_228" data-name="Pfad 228" d="M3492.487,2647.463h25.791a265.569,265.569,0,0,0,13.72-37.7,18.962,18.962,0,0,0-3.37-.341h-36.141a19.022,19.022,0,0,0,0,38.044Z" transform="translate(-3315.029 -2266.524)"/>
        <path id="Pfad_229" data-name="Pfad 229" d="M3487.31,2651.638a246.912,246.912,0,0,0,24.355-37.231h-19.178a18.968,18.968,0,0,0-5.177,37.231Z" transform="translate(-3315.029 -2220.055)"/>
        <path id="Pfad_230" data-name="Pfad 230" d="M3484.812,2637.491h36.138a19.024,19.024,0,1,0,0-38.048h-36.138a19.024,19.024,0,1,0,0,38.048Z" transform="translate(-3386.566 -2359.463)"/>
        <path id="Pfad_231" data-name="Pfad 231" d="M3484.812,2647.463h36.138a19.022,19.022,0,1,0,0-38.044h-36.138a19.022,19.022,0,1,0,0,38.044Z" transform="translate(-3386.566 -2266.524)"/>
        <path id="Pfad_232" data-name="Pfad 232" d="M3484.812,2652.452h36.138a19.023,19.023,0,1,0,0-38.045h-36.138a19.023,19.023,0,1,0,0,38.045Z" transform="translate(-3386.566 -2220.055)"/>
        <path id="Pfad_233" data-name="Pfad 233" d="M3484.812,2642.479h36.138a19.024,19.024,0,0,0,0-38.048h-36.138a19.024,19.024,0,1,0,0,38.048Z" transform="translate(-3386.566 -2312.997)"/>
        <path id="Pfad_234" data-name="Pfad 234" d="M3483.491,2619.585h33.042a17.4,17.4,0,0,0,0-34.792h-33.042a17.4,17.4,0,0,0,0,34.792Z" transform="translate(-3383.698 -2495.94)"/>
        <path id="Pfad_235" data-name="Pfad 235" d="M3499.8,2633.428a19.091,19.091,0,0,0-19.021-19.021H3461.6a246.826,246.826,0,0,0,24.358,37.231A19.034,19.034,0,0,0,3499.8,2633.428Z" transform="translate(-3425.613 -2220.055)"/>
        <path id="Pfad_236" data-name="Pfad 236" d="M3508.055,2604.431h-36.147a18.956,18.956,0,0,0-13.239,5.427c1.619,10.36,3.536,20.746,5.94,31.144a18.974,18.974,0,0,0,7.3,1.477h36.147a19.024,19.024,0,1,0,0-38.048Z" transform="translate(-3452.892 -2312.997)"/>
        <path id="Pfad_237" data-name="Pfad 237" d="M3499.135,2609.419h-36.144a18.975,18.975,0,0,0-3.366.341,264.367,264.367,0,0,0,13.719,37.7h25.792a19.022,19.022,0,1,0,0-38.044Z" transform="translate(-3443.976 -2266.524)"/>
        <path id="Pfad_238" data-name="Pfad 238" d="M3492.487,2604.431a19.024,19.024,0,0,0,0,38.048h36.141a18.972,18.972,0,0,0,7.3-1.477c2.4-10.4,4.324-20.784,5.934-31.144a18.945,18.945,0,0,0-13.236-5.427Z" transform="translate(-3315.029 -2312.997)"/>
        <path id="Pfad_239" data-name="Pfad 239" d="M3484.812,2627.512h36.138a19.022,19.022,0,1,0,0-38.044h-36.138a19.022,19.022,0,1,0,0,38.044Z" transform="translate(-3386.566 -2452.403)"/>
        <path id="Pfad_240" data-name="Pfad 240" d="M3479.754,2615.019H3512.8a17.392,17.392,0,0,0,0-34.785h-33.048a17.392,17.392,0,0,0,0,34.785Z" transform="translate(-3418.486 -2538.43)"/>
        <path id="Pfad_241" data-name="Pfad 241" d="M3476.469,2619.585h33.038a17.4,17.4,0,1,0,0-34.792h-33.038a17.4,17.4,0,0,0,0,34.792Z" transform="translate(-3449.118 -2495.94)"/>
        <path id="Pfad_242" data-name="Pfad 242" d="M3469.831,2597.624a17.444,17.444,0,0,0,17.388,17.4h33.045a17.392,17.392,0,1,0,0-34.785h-33.045A17.446,17.446,0,0,0,3469.831,2597.624Z" transform="translate(-3348.911 -2538.43)"/>
        <path id="Pfad_243" data-name="Pfad 243" d="M3480.589,2605.719h44.084a14.769,14.769,0,0,0,0-29.538h-44.084a14.769,14.769,0,1,0,0,29.538Z" transform="translate(-3386.316 -2576.181)"/>
        <path id="Pfad_244" data-name="Pfad 244" d="M3483.184,2654.339h33.185a16.884,16.884,0,0,0,2.994-.314q6.145-10.034,14.072-20.8a17.512,17.512,0,0,0-17.066-13.831h-33.185a17.514,17.514,0,0,0-17.062,13.831q7.952,10.756,14.069,20.8A16.921,16.921,0,0,0,3483.184,2654.339Z" transform="translate(-3383.465 -2173.585)"/>
        <path id="Pfad_245" data-name="Pfad 245" d="M3477.119,2627.512h36.154a19.022,19.022,0,1,0,0-38.044h-36.154a19.022,19.022,0,0,0,0,38.044Z" transform="translate(-3458.108 -2452.403)"/>
        <path id="Pfad_246" data-name="Pfad 246" d="M3477.119,2632.5h36.154a19.023,19.023,0,1,0,0-38.045h-36.154a19.023,19.023,0,0,0,0,38.045Z" transform="translate(-3458.108 -2405.933)"/>
        <path id="Pfad_247" data-name="Pfad 247" d="M3528.628,2599.443h-36.141a19.024,19.024,0,0,0,0,38.048h36.141a19.09,19.09,0,0,0,17.354-11.318c.452-3.683.891-7.356,1.34-11.021A19.076,19.076,0,0,0,3528.628,2599.443Z" transform="translate(-3315.029 -2359.463)"/>
        <path id="Pfad_248" data-name="Pfad 248" d="M3512.975,2599.443h-36.149a19.064,19.064,0,0,0-18.685,15.723q.669,5.491,1.34,11.007a19.06,19.06,0,0,0,17.345,11.318h36.149a19.024,19.024,0,0,0,0-38.048Z" transform="translate(-3457.811 -2359.463)"/>
        <path id="Pfad_249" data-name="Pfad 249" d="M3491.715,2624.082h-23.47a173.891,173.891,0,0,1,11.742,27.8A172.839,172.839,0,0,1,3491.715,2624.082Z" transform="translate(-3363.666 -2129.92)"/>
        <path id="Pfad_250" data-name="Pfad 250" d="M3492.487,2632.5h36.141a19.023,19.023,0,0,0,0-38.045h-36.141a19.023,19.023,0,0,0,0,38.045Z" transform="translate(-3315.029 -2405.933)"/>
        <path id="Pfad_251" data-name="Pfad 251" d="M3473.117,2602.19a17.443,17.443,0,0,0,17.39,17.4h33.044a17.4,17.4,0,1,0,0-34.792h-33.044A17.447,17.447,0,0,0,3473.117,2602.19Z" transform="translate(-3318.281 -2495.94)"/>
        <path id="Pfad_252" data-name="Pfad 252" d="M3492.487,2589.468a19.022,19.022,0,0,0,0,38.044h36.141a19.022,19.022,0,0,0,0-38.044Z" transform="translate(-3315.029 -2452.403)"/>
      </g>
    </g>
  </g>
</svg>
