<svg id="Ebene_1" data-name="Ebene 1" xmlns="http://www.w3.org/2000/svg" viewBox="0 0 238.11 166.01"><defs><style>.cls-1{fill:#fff;}.cls-1,.cls-2{fill-opacity:0.7;}.cls-2{fill:#08ffff;}.cls-3{fill:#4cfec0;}.cls-4{fill:#80fc80;}.cls-5{fill:#1d1d1a;}</style></defs><path class="cls-1" d="M244.5,69.24h0L241.37,105a211.58,211.58,0,0,1-36.65,7.33l-.21,0-.24,0-.16,0-.32.06c-14.13,2.41-30.36,3.24-46,3.24h0a596.48,596.48,0,0,1-67.09-4.13h0L20.51,127.1l-.2-12.19c-4.91,1.47-8.32,2.74-9.28,3.77-.36,12.9.44,21.5,1.56,37.91a43.53,43.53,0,0,1,4.52-.22,57.71,57.71,0,0,1,15.41,2.18c.6,4.12,14.66,5.23,30.11,9.68L96.15,178l22.69-3.84c13-6.91,40.18-7.77,40.18-7.77l18-7.11,15.67,5L210,155.31l15.71-4.19c12.53-2.55,13.58.6,19.2-5.07l4.19-73.51s-1.87-1.37-4.56-3.3" transform="translate(-10.94 -11.99)"/><path class="cls-2" d="M244.5,69.24h0L241.37,105a211.58,211.58,0,0,1-36.65,7.33l-.21,0-.24,0-.16,0-.32.06c-14.13,2.41-30.36,3.24-46,3.24h0a596.48,596.48,0,0,1-67.09-4.13h0L20.51,127.1l-.2-12.19c-4.91,1.47-8.32,2.74-9.28,3.77-.36,12.9.44,21.5,1.56,37.91a43.53,43.53,0,0,1,4.52-.22,57.71,57.71,0,0,1,15.41,2.18c.6,4.12,14.66,5.23,30.11,9.68L96.15,178l22.69-3.84c13-6.91,40.18-7.77,40.18-7.77l18-7.11,15.67,5L210,155.31l15.71-4.19c12.53-2.55,13.58.6,19.2-5.07l4.19-73.51s-1.87-1.37-4.56-3.3" transform="translate(-10.94 -11.99)"/><path class="cls-3" d="M223.48,56.34h0c-2.16,0-4.05,7-6.07,13.06-1.6,4.81-3.28,9.11-5.24,9.11-3.57.21-23,.92-23,.92l-.51,0h-.19l-.32,0h-.07c-5.85.3-17.87,1.13-30.07,1.13h0c-13.86,0-27.92-1.07-33.36-5.19h0l-.11-.08,0,0h-.3c-1.44-.06-2.75-.09-3.94-.09h0c-9.17,0-12.06,2-23.4,13.38l-.13.14c-8.5,10.38-55.79,20-76.35,26.19l.2,12.19,70.13-15.46h0a596,596,0,0,0,67.08,4.13h0c15.67,0,31.9-.83,46-3.24l.32-.06.16,0,.24,0,.21,0A211.83,211.83,0,0,0,241.38,105l3.12-35.8-.35-.25h0l-.29-.21C237.22,64,226.29,56.44,224.1,56.44H224a1.14,1.14,0,0,0-.49-.12h0" transform="translate(-10.94 -11.99)"/><path class="cls-4" d="M150.29,12S88.66,24.62,79.88,26.75L19.34,54.51l1,60.4c20.56-6.14,67.85-15.81,76.35-26.19l.13-.13C108.14,77.24,111,75.2,120.19,75.2h0c1.2,0,2.5,0,3.94.08l.29,0,0,0,.11.08h0c5.44,4.12,19.51,5.19,33.36,5.19h0c12.19,0,24.22-.83,30.07-1.13h.07l.32,0h.19l.51,0s19.44-.71,23-.92c2,0,3.64-4.3,5.24-9.11,2-6.1,3.91-13,6.07-13.06h0a1.14,1.14,0,0,1,.49.12h.13c2.19,0,13.12,7.58,19.76,12.33l.29.21h0l.35.25,1.79-20.4L173.82,34.52Z" transform="translate(-10.94 -11.99)"/><path class="cls-5" d="M72.15,153.82a5.49,5.49,0,0,0,.88.05A2.58,2.58,0,0,0,75.88,151a2.39,2.39,0,0,0-2.72-2.58,4.91,4.91,0,0,0-1,.09Zm-.86-5.93a12.21,12.21,0,0,1,1.84-.14,3.82,3.82,0,0,1,2.71.84,3.05,3.05,0,0,1,.94,2.4,3.54,3.54,0,0,1-1,2.61,4.16,4.16,0,0,1-3,1,13.72,13.72,0,0,1-1.57-.08Z" transform="translate(-10.94 -11.99)"/><path class="cls-5" d="M80.42,152.05c-1,0-2,.15-2,1.08a.78.78,0,0,0,.83.84,1.2,1.2,0,0,0,1.16-.81l0-.28Zm.13,2.45-.07-.6h0a1.82,1.82,0,0,1-1.47.71,1.37,1.37,0,0,1-1.48-1.38c0-1.16,1-1.8,2.9-1.79v-.1a1,1,0,0,0-1.1-1.11,2.4,2.4,0,0,0-1.25.36l-.2-.58a3,3,0,0,1,1.58-.43c1.47,0,1.83,1,1.83,2v1.8a6.62,6.62,0,0,0,.08,1.15Z" transform="translate(-10.94 -11.99)"/><path class="cls-5" d="M83.7,148.31v1.38H85v.67H83.7V153c0,.6.17.94.66.94a1.81,1.81,0,0,0,.5-.06l0,.65a2.15,2.15,0,0,1-.78.12,1.22,1.22,0,0,1-.95-.37,1.8,1.8,0,0,1-.33-1.25v-2.62H82.1v-.67h.75v-1.15Z" transform="translate(-10.94 -11.99)"/><path class="cls-5" d="M89,151.63a1.25,1.25,0,0,0-1.22-1.42,1.45,1.45,0,0,0-1.34,1.42Zm-2.57.62A1.55,1.55,0,0,0,88,153.93a3.13,3.13,0,0,0,1.33-.25l.15.62a3.86,3.86,0,0,1-1.6.3,2.23,2.23,0,0,1-2.37-2.42,2.34,2.34,0,0,1,2.26-2.6,2,2,0,0,1,2,2.27,3.13,3.13,0,0,1,0,.4Z" transform="translate(-10.94 -11.99)"/><path class="cls-5" d="M90.88,151c0-.49,0-.9,0-1.3h.77l0,.79h0a1.79,1.79,0,0,1,1.59-.9c.67,0,1.7.4,1.7,2v2.87H94.1v-2.77c0-.78-.29-1.42-1.12-1.42a1.24,1.24,0,0,0-1.17.89l-.06.41v2.89h-.87Z" transform="translate(-10.94 -11.99)"/><path class="cls-5" d="M98.51,151c0-.49,0-.9,0-1.3h.77l.05.79h0a1.79,1.79,0,0,1,1.59-.9c.67,0,1.71.4,1.71,2v2.87h-.88v-2.77c0-.78-.29-1.42-1.11-1.42a1.24,1.24,0,0,0-1.18.89l-.06.41v2.89h-.87Z" transform="translate(-10.94 -11.99)"/><path class="cls-5" d="M108.06,153.19c0,.5,0,.93,0,1.31h-.78l0-.78h0a1.82,1.82,0,0,1-1.59.89c-.76,0-1.66-.42-1.66-2.11v-2.81h.87v2.67c0,.91.28,1.53,1.08,1.53a1.27,1.27,0,0,0,1.15-.8,1.29,1.29,0,0,0,.08-.45v-2.95h.88Z" transform="translate(-10.94 -11.99)"/><path class="cls-5" d="M110.57,148.31v1.38h1.25v.67h-1.25V153c0,.6.17.94.65.94a2,2,0,0,0,.51-.06l0,.65a2.15,2.15,0,0,1-.78.12,1.21,1.21,0,0,1-.94-.37,1.75,1.75,0,0,1-.34-1.25v-2.62H109v-.67h.74v-1.15Z" transform="translate(-10.94 -11.99)"/><path class="cls-5" d="M112.26,154l2.18-2.84c.21-.26.4-.49.62-.74v0h-2.6v-.7h3.67v.55L114,153c-.2.27-.4.51-.62.76v0h2.82v.69h-3.91Z" transform="translate(-10.94 -11.99)"/><path class="cls-5" d="M120.05,151.63a1.24,1.24,0,0,0-1.22-1.42,1.45,1.45,0,0,0-1.34,1.42Zm-2.57.62a1.55,1.55,0,0,0,1.65,1.68,3.18,3.18,0,0,0,1.34-.25l.15.62a4,4,0,0,1-1.61.3,2.23,2.23,0,0,1-2.36-2.42,2.33,2.33,0,0,1,2.25-2.6,2,2,0,0,1,2,2.27,3.13,3.13,0,0,1,0,.4Z" transform="translate(-10.94 -11.99)"/><path class="cls-5" d="M122,151c0-.49,0-.9,0-1.3h.77l.05.79h0a1.79,1.79,0,0,1,1.6-.9c.66,0,1.7.4,1.7,2v2.87h-.88v-2.77c0-.78-.29-1.42-1.11-1.42a1.24,1.24,0,0,0-1.18.89l-.06.41v2.89H122Z" transform="translate(-10.94 -11.99)"/><rect class="cls-5" x="118.24" y="139.69" width="4.38" height="0.6"/><path class="cls-5" d="M136.72,147.8h.87V151h0c.18-.26.36-.5.53-.71l2-2.52h1.07l-2.43,2.84,2.62,3.86h-1l-2.2-3.29-.64.74v2.55h-.87Z" transform="translate(-10.94 -11.99)"/><rect class="cls-5" x="131.24" y="135.45" width="0.87" height="7.06"/><path class="cls-5" d="M144.54,149.69h.87v4.81h-.87Zm1-1.35a.54.54,0,0,1-1.08,0,.53.53,0,0,1,.54-.55.52.52,0,0,1,.54.55" transform="translate(-10.94 -11.99)"/><path class="cls-5" d="M146.86,151c0-.49,0-.9,0-1.3h.77l0,.78h0a1.65,1.65,0,0,1,1.51-.89,1.42,1.42,0,0,1,1.36,1h0a2.07,2.07,0,0,1,.54-.62,1.64,1.64,0,0,1,1.06-.34c.64,0,1.58.42,1.58,2.09v2.83h-.85v-2.72c0-.93-.34-1.48-1-1.48a1.13,1.13,0,0,0-1,.79,1.45,1.45,0,0,0-.07.44v3h-.85v-2.88c0-.77-.34-1.32-1-1.32a1.18,1.18,0,0,0-1.08.87l-.07.43v2.9h-.86Z" transform="translate(-10.94 -11.99)"/><path class="cls-5" d="M157.7,152.05c-1,0-2,.15-2,1.08a.78.78,0,0,0,.82.84,1.2,1.2,0,0,0,1.17-.81l0-.28Zm.13,2.45-.08-.6h0a1.82,1.82,0,0,1-1.48.71,1.37,1.37,0,0,1-1.47-1.38c0-1.16,1-1.8,2.9-1.79v-.1a1,1,0,0,0-1.1-1.11,2.38,2.38,0,0,0-1.25.36l-.2-.58a3,3,0,0,1,1.58-.43c1.47,0,1.83,1,1.83,2v1.8a6.62,6.62,0,0,0,.08,1.15Z" transform="translate(-10.94 -11.99)"/><path class="cls-5" d="M162,153.61a2.24,2.24,0,0,0,1.15.35c.64,0,.93-.32.93-.72s-.24-.65-.89-.88c-.87-.31-1.27-.79-1.27-1.37a1.48,1.48,0,0,1,1.66-1.41,2.37,2.37,0,0,1,1.18.3l-.22.63a2,2,0,0,0-1-.27c-.52,0-.81.29-.81.65s.29.58.92.82c.83.32,1.26.73,1.26,1.45s-.66,1.44-1.8,1.44a2.72,2.72,0,0,1-1.35-.33Z" transform="translate(-10.94 -11.99)"/><path class="cls-5" d="M169.44,154.32a3.24,3.24,0,0,1-1.39.28,2.28,2.28,0,0,1-2.39-2.46,2.44,2.44,0,0,1,2.58-2.55,2.94,2.94,0,0,1,1.22.25l-.2.67a2.17,2.17,0,0,0-1-.22,1.81,1.81,0,0,0,0,3.62,2.49,2.49,0,0,0,1.07-.24Z" transform="translate(-10.94 -11.99)"/><path class="cls-5" d="M170.46,147.44h.88v3h0a1.57,1.57,0,0,1,.63-.62,1.75,1.75,0,0,1,.89-.25c.65,0,1.68.4,1.68,2.06v2.86h-.87v-2.76c0-.78-.29-1.43-1.12-1.43a1.25,1.25,0,0,0-1.17.87,1.07,1.07,0,0,0-.06.42v2.9h-.88Z" transform="translate(-10.94 -11.99)"/><path class="cls-5" d="M178.45,148.33a.5.5,0,0,1,.5-.51.51.51,0,0,1,0,1,.49.49,0,0,1-.5-.5m-1.85,0a.51.51,0,0,1,.51-.51.51.51,0,0,1,0,1,.5.5,0,0,1-.51-.5m3.41,4.86c0,.5,0,.93,0,1.31h-.77l-.05-.78h0a1.83,1.83,0,0,1-1.59.89c-.76,0-1.66-.42-1.66-2.11v-2.81h.87v2.67c0,.91.28,1.53,1.08,1.53a1.27,1.27,0,0,0,1.15-.8,1.29,1.29,0,0,0,.08-.45v-2.95H180Z" transform="translate(-10.94 -11.99)"/><path class="cls-5" d="M182.52,148.31v1.38h1.25v.67h-1.25V153c0,.6.17.94.66.94a2,2,0,0,0,.51-.06l0,.65a2.05,2.05,0,0,1-.77.12,1.22,1.22,0,0,1-.95-.37,1.8,1.8,0,0,1-.33-1.25v-2.62h-.75v-.67h.75v-1.15Z" transform="translate(-10.94 -11.99)"/><path class="cls-5" d="M184.21,154l2.18-2.84c.21-.26.41-.49.63-.74v0h-2.61v-.7h3.67v.55L185.92,153a8.82,8.82,0,0,1-.61.76v0h2.81v.69h-3.91Z" transform="translate(-10.94 -11.99)"/><path class="cls-5" d="M192,151.63a1.24,1.24,0,0,0-1.21-1.42,1.45,1.45,0,0,0-1.34,1.42Zm-2.56.62a1.54,1.54,0,0,0,1.65,1.68,3.13,3.13,0,0,0,1.33-.25l.15.62a3.9,3.9,0,0,1-1.6.3,2.23,2.23,0,0,1-2.37-2.42,2.34,2.34,0,0,1,2.26-2.6,2,2,0,0,1,2,2.27,3.13,3.13,0,0,1,0,.4Z" transform="translate(-10.94 -11.99)"/><path class="cls-5" d="M193.94,151c0-.49,0-.9,0-1.3h.77l.05.79h0a1.79,1.79,0,0,1,1.59-.9c.67,0,1.7.4,1.7,2v2.87h-.87v-2.77c0-.78-.29-1.42-1.12-1.42a1.24,1.24,0,0,0-1.17.89l-.06.41v2.89h-.87Z" transform="translate(-10.94 -11.99)"/><path class="cls-5" d="M93.49,75.57A3,3,0,0,1,90.81,74L80.67,61.31H75.93V73.2a2.35,2.35,0,0,1-4.69,0V44.63a2.35,2.35,0,0,1,4.69,0v12.3h4.48l9.88-12.77c.93-1.39,1.6-1.9,2.73-1.9,2,0,2.73,1.85,1.5,3.65L84.37,58.84,95,71.71c1.49,2.16.26,3.86-1.49,3.86" transform="translate(-10.94 -11.99)"/><path class="cls-5" d="M104.4,39.89a2.21,2.21,0,0,1,2.32,2.26V73.26a2.29,2.29,0,0,1-4.58,0V42.15a2.16,2.16,0,0,1,2.26-2.26" transform="translate(-10.94 -11.99)"/><path class="cls-5" d="M117.84,75.52a2.17,2.17,0,0,1-2.31-2.26V52.92a2.16,2.16,0,0,1,2.26-2.27,2.21,2.21,0,0,1,2.32,2.27V73.26a2.19,2.19,0,0,1-2.27,2.26m2.78-31.87a2.83,2.83,0,1,1-5.66,0,2.83,2.83,0,1,1,5.66,0" transform="translate(-10.94 -11.99)"/><path class="cls-5" d="M166.3,60.33V73.26a2.3,2.3,0,0,1-4.59,0V61.05c0-4.07-2.26-6.64-5.92-6.64s-5.92,2.57-5.92,6.64V73.26a2.17,2.17,0,0,1-2.27,2.26,2.2,2.2,0,0,1-2.31-2.26V61.05c0-4.07-2.22-6.64-5.92-6.64-3.35,0-5.51,2.16-5.87,5.61V73.26a2.3,2.3,0,0,1-4.59,0V52.92a2.17,2.17,0,0,1,2.27-2.27,2.21,2.21,0,0,1,2.32,2.27v.92a8.23,8.23,0,0,1,7.1-3.7,8.56,8.56,0,0,1,8.19,5,8.6,8.6,0,0,1,8.08-5c5.67,0,9.43,3.86,9.43,10.19" transform="translate(-10.94 -11.99)"/><path class="cls-5" d="M193.54,63.06c0-4.84-3.3-8.65-8-8.65s-8,3.81-8,8.65,3.4,8.7,8,8.7,8-3.91,8-8.7m4.58-10.14V73.26a2.29,2.29,0,0,1-4.58,0v-1.7A10.28,10.28,0,0,1,184.89,76c-6.7,0-11.95-5.51-11.95-13,0-7.31,5.05-12.92,11.95-12.92a10.27,10.27,0,0,1,8.65,4.32V52.92a2.29,2.29,0,0,1,4.58,0" transform="translate(-10.94 -11.99)"/><path class="cls-5" d="M75.69,105.35h5c7.5,0,12.49-4.42,12.49-11.16S88.22,83,80.67,83h-5ZM73.32,79h7.26c10.16,0,17.14,6.27,17.14,15.24s-6.84,15.19-16.67,15.19H73.32a2,2,0,0,1-2-2V81a2,2,0,0,1,2-2" transform="translate(-10.94 -11.99)"/><path class="cls-5" d="M121.74,98c0-4.46-3-8-7.36-8s-7.4,3.52-7.4,8,3.13,8,7.4,8,7.36-3.61,7.36-8M126,88.64v18.75a2.11,2.11,0,0,1-4.22,0v-1.57a9.46,9.46,0,0,1-8,4.13c-6.17,0-11-5.08-11-12s4.65-11.92,11-11.92a9.47,9.47,0,0,1,8,4V88.64a2.11,2.11,0,0,1,4.22,0" transform="translate(-10.94 -11.99)"/><path class="cls-5" d="M145.67,105.2a1.55,1.55,0,0,1,1.66,1.57c0,1.62-2,3.18-5.27,3.18-4.32,0-6.89-2.51-6.89-7.4V90.39h-2.51a1.88,1.88,0,0,1,0-3.75h2.51V83a2,2,0,0,1,2.09-2.14A2.07,2.07,0,0,1,139.4,83v3.6h5.18a1.78,1.78,0,0,1,1.85,1.9,1.76,1.76,0,0,1-1.85,1.85h-5.13v12.54c0,2.13,1,3.08,2.8,3.08,1.61,0,2.47-.81,3.42-.81" transform="translate(-10.94 -11.99)"/><path class="cls-5" d="M154.16,96.28h13.77c-.52-4.23-3.27-6.6-6.83-6.6-3.71,0-6.32,2.8-6.94,6.6m15.43,2.8H154.07a7.66,7.66,0,0,0,7.78,7.12c4.09,0,5.46-2,6.79-2a1.52,1.52,0,0,1,1.66,1.56c0,2-3.7,4.18-8.59,4.18A11.72,11.72,0,0,1,149.8,98c0-6.6,4.65-11.92,11.39-11.92a10.56,10.56,0,0,1,11,10.45,2.35,2.35,0,0,1-2.57,2.56" transform="translate(-10.94 -11.99)"/><path class="cls-5" d="M198.13,95.47v11.92a2,2,0,0,1-2.09,2.09,2,2,0,0,1-2.14-2.09V96.14c0-3.75-2.18-6.13-5.7-6.13a5.37,5.37,0,0,0-5.69,5.18v12.2a2.12,2.12,0,0,1-4.23,0V88.64a2,2,0,0,1,2.09-2.09,2,2,0,0,1,2.14,2.09v.76a7.87,7.87,0,0,1,6.78-3.33c5.37,0,8.84,3.66,8.84,9.4" transform="translate(-10.94 -11.99)"/><path class="cls-5" d="M72.57,136.62c1.46,0,3.75,2.84,8.79,2.84,3.27,0,5.51-1.63,5.51-4.22,0-6.68-15.64-3.79-15.64-13.31,0-4.44,3.79-7.5,9.57-7.5,5.08,0,9.22,2.15,9.22,4.31a1.52,1.52,0,0,1-1.64,1.55c-1.59,0-3.45-2.2-8-2.2-3.06,0-5,1.47-5,3.67,0,6.11,15.55,3.36,15.55,13.18,0,4.87-3.79,8.14-9.87,8.14-5.34,0-10.08-2.54-10.08-4.91a1.54,1.54,0,0,1,1.64-1.55" transform="translate(-10.94 -11.99)"/><path class="cls-5" d="M113,124.9a1.48,1.48,0,0,1-1.55,1.51c-1.42,0-2.5-1.42-5.81-1.42-4.18,0-6.9,3.23-6.9,7.24s2.72,7.28,6.9,7.28c3.31,0,4.39-1.42,5.81-1.42a1.49,1.49,0,0,1,1.55,1.55c0,1.89-3.36,3.44-7.15,3.44a10.84,10.84,0,1,1,.09-21.67c3.75,0,7.06,1.55,7.06,3.49" transform="translate(-10.94 -11.99)"/><path class="cls-5" d="M136,129.94v10.82a1.8,1.8,0,0,1-1.89,1.89,1.84,1.84,0,0,1-1.94-1.89V130.55c0-3.41-2-5.56-5.17-5.56a4.87,4.87,0,0,0-5.17,4.69v11.08a1.92,1.92,0,0,1-3.84,0v-26a1.81,1.81,0,0,1,1.9-1.89,1.84,1.84,0,0,1,1.94,1.89v9.7a7.14,7.14,0,0,1,6.16-3c4.87,0,8,3.32,8,8.53" transform="translate(-10.94 -11.99)"/><path class="cls-5" d="M151.85,139.51c3.27,0,5.39-2.42,5.39-6v-9.74a1.92,1.92,0,0,1,3.83,0v10.08c0,5.56-3.66,9.26-9.22,9.26s-9.14-3.7-9.14-9.26V123.74a1.82,1.82,0,0,1,1.9-1.9,1.85,1.85,0,0,1,1.94,1.9v9.74c0,3.61,2.11,6,5.3,6" transform="translate(-10.94 -11.99)"/><path class="cls-5" d="M170,112.84a1.84,1.84,0,0,1,1.94,1.89v26a1.92,1.92,0,0,1-3.83,0v-26a1.8,1.8,0,0,1,1.89-1.89" transform="translate(-10.94 -11.99)"/><path class="cls-5" d="M181.8,130.68h12.49c-.47-3.84-3-6-6.2-6s-5.73,2.54-6.29,6m14,2.54H181.71a7,7,0,0,0,7.07,6.46c3.7,0,4.95-1.81,6.16-1.81a1.38,1.38,0,0,1,1.51,1.42c0,1.85-3.37,3.79-7.8,3.79a10.65,10.65,0,0,1-10.82-10.85c0-6,4.22-10.82,10.34-10.82a9.59,9.59,0,0,1,10,9.48,2.14,2.14,0,0,1-2.33,2.33" transform="translate(-10.94 -11.99)"/></svg>