<svg xmlns="http://www.w3.org/2000/svg" xmlns:xlink="http://www.w3.org/1999/xlink" width="800" height="800" viewBox="0 0 800 800">
  <defs>
    <clipPath id="clip-icon-baeume">
      <rect width="800" height="800"/>
    </clipPath>
  </defs>
  <g id="icon-baeume" clip-path="url(#clip-icon-baeume)">
    <g id="Gruppe_517" data-name="Gruppe 517" transform="translate(12 90)">
      <g id="Gruppe_90" data-name="Gruppe 90" transform="translate(0 79.688)">
        <path id="Pfad_191" data-name="Pfad 191" d="M3665.265,2493.856a109.462,109.462,0,0,0-8.152-64.305c-17.27-38.627-52.879-62.273-88.381-62.553a65.667,65.667,0,0,0-114.562,0c-35.493.28-71.108,23.926-88.372,62.553a109.452,109.452,0,0,0-8.149,64.305,87.259,87.259,0,0,0,82.462,146.966,36.446,36.446,0,0,0,49.406,21.7v98.785c0,25.632-23.646,36.884-45.718,47.3v17.314h145.06v-17.314c-22.072-10.415-45.71-21.667-45.71-47.3v-96.132a35.957,35.957,0,0,0,5.047.509,36.62,36.62,0,0,0,34.6-24.865,87.342,87.342,0,0,0,82.47-146.966Z" transform="translate(-3331.582 -2333.44)" fill="#3fffbf"/>
        <path id="Pfad_192" data-name="Pfad 192" d="M3720.707,2493.856a109.379,109.379,0,0,0-8.15-64.305c-17.27-38.627-52.878-62.273-88.379-62.553a65.661,65.661,0,0,0-114.555,0c-35.5.28-71.108,23.926-88.38,62.553a109.437,109.437,0,0,0-8.15,64.305,87.261,87.261,0,0,0,82.467,146.966,36.44,36.44,0,0,0,49.4,21.7v98.785c0,25.632-23.641,36.884-45.719,47.3v17.314h145.066v-17.314c-22.078-10.415-45.717-21.667-45.717-47.3v-96.132a36.068,36.068,0,0,0,5.047.509,36.616,36.616,0,0,0,34.6-24.865,87.341,87.341,0,0,0,82.466-146.966Z" transform="translate(-2970.471 -2333.44)" fill="#3fffbf"/>
      </g>
      <path id="Pfad_193" data-name="Pfad 193" d="M3773.626,2525.021c4.727-25.692,1.791-54.073-10.268-81.048-21.763-48.687-66.647-78.488-111.388-78.843a82.756,82.756,0,0,0-144.385,0c-44.742.354-89.628,30.156-111.39,78.843-12.057,26.975-14.994,55.356-10.269,81.048a109.978,109.978,0,0,0,103.929,185.228,45.962,45.962,0,0,0,62.269,27.358v124.5c0,32.3-29.8,46.485-57.619,59.608v21.824h182.832v-21.824c-27.817-13.124-57.619-27.307-57.619-59.608V2740.942a45.581,45.581,0,0,0,6.363.639,46.149,46.149,0,0,0,43.608-31.333,110.076,110.076,0,0,0,103.937-185.228Z" transform="translate(-3191.623 -2322.832)" fill="#010101"/>
    </g>
  </g>
</svg>
