<svg xmlns="http://www.w3.org/2000/svg" xmlns:xlink="http://www.w3.org/1999/xlink" width="800" height="800" viewBox="0 0 800 800">
  <defs>
    <clipPath id="clip-icon-mobilitaet">
      <rect width="800" height="800"/>
    </clipPath>
  </defs>
  <g id="icon-mobilitaet" clip-path="url(#clip-icon-mobilitaet)">
    <g id="Gruppe_518" data-name="Gruppe 518" transform="translate(48 77)">
      <path id="Pfad_413" data-name="Pfad 413" d="M-1406.5,297.019c-1.554-11.043,8.818-11.113-13.787-30.714-13.231-11.49-39.907-19.142-55.576-12.7-19.823,8.17-44.357,64.206-53.174,85.8-3.933,9.606-4.451,20.531-.085,29.949,6.4,13.786,23.486,29.184,67.927,29.49C-1399.333,399.273-1401.9,329.664-1406.5,297.019Z" transform="translate(1688.401 -109.248)" fill="#3fffbf"/>
      <g id="Gruppe_270" data-name="Gruppe 270" transform="translate(0 0)">
        <path id="Pfad_408" data-name="Pfad 408" d="M-1187.1,491.429c2.224,1.743,4.038,3.049,5.722,4.509,10.7,9.218,21.107,18.8,32.16,27.582,4.9,3.885,10.761,7.417,16.741,8.936,22.1,5.6,44.369,10.559,66.7,15.163a44.633,44.633,0,0,0,17.8-.047c14.258-3.014,24.864-17.306,24.783-31.962-.094-15.94-10.784-29.29-26.888-33-18.4-4.238-36.9-8.064-55.284-12.313a19.179,19.179,0,0,1-8.041-4.132c-10.581-9.347-20.752-19.165-31.4-28.454-11.076-9.677-21.815-19.989-34-28.1-12.537-8.346-26.569-14.492-40.1-21.331-4.591-2.319-9.465-4.544-14.468-5.521-27.747-5.462-48.7,4.9-61.654,30.231-20.952,41.026-41.189,82.453-62.9,123.091a54.064,54.064,0,0,0,35.236,78.368c35.269,8.629,70.187,18.635,105.231,28.124,12.292,3.32,15.564,9.041,12.279,21.1-12.207,44.806-24.332,89.623-36.728,134.369-3.309,11.972-2.284,23.191,4.849,33.245,8.922,12.585,21.579,18.258,36.848,15.787,16.08-2.614,26.392-12.655,30.668-28.242,15.811-57.6,31.595-115.215,46.924-172.958,6.828-25.735-3.9-50.586-27.065-62.017-10.1-4.98-21.521-7.369-32.457-10.524-13.7-3.955-27.522-7.487-41.8-11.349Zm-233.573,394.325a124.477,124.477,0,0,0,124.255-124.775,124.114,124.114,0,0,0-124.642-124.2,124.446,124.446,0,0,0-124.41,124.586C-1545.385,829.942-1489.242,885.884-1420.669,885.754Zm330.53-124.386c.105,68.751,55.989,124.6,124.621,124.539a124.416,124.416,0,0,0,124.3-124.692c-.073-69.292-55.6-124.5-125.08-124.351C-1034.669,637.018-1090.234,692.889-1090.139,761.368Zm-5.332-449.184c.365-39.284-31.9-72.611-70.645-72.989a73.263,73.263,0,0,0-74.507,73.153c-.19,38.943,32.984,71.988,72.387,72.094C-1128.447,384.549-1095.848,352.175-1095.471,312.185Z" transform="translate(1545.466 -239.193)" fill="#010101"/>
        <path id="Pfad_410" data-name="Pfad 410" d="M-1420.669,521.938c-68.573.13-124.716-55.812-124.8-124.386a124.447,124.447,0,0,1,124.41-124.586,124.114,124.114,0,0,1,124.642,124.2A124.476,124.476,0,0,1-1420.669,521.938Z" transform="translate(1545.466 124.623)" fill="#010101"/>
        <path id="Pfad_411" data-name="Pfad 411" d="M-1506.788,397.477c-.1-68.48,55.47-124.351,123.844-124.5,69.479-.153,125.009,55.059,125.081,124.351a124.419,124.419,0,0,1-124.305,124.692C-1450.8,522.075-1506.682,466.228-1506.788,397.477Z" transform="translate(1962.115 124.698)" fill="#010101"/>
        <path id="Pfad_409" data-name="Pfad 409" d="M-1352.79,361.356l-36.833,70.551c14.28,3.862,28.1,7.393,41.8,11.349,10.937,3.155,22.355,5.545,32.455,10.525,23.168,11.431,33.894,36.282,27.066,62.016-15.329,57.743-31.115,115.356-46.924,172.958-4.274,15.587-14.586,25.628-30.666,28.242-15.27,2.472-27.927-3.2-36.849-15.787-7.135-10.053-8.159-21.273-4.849-33.245,12.4-44.747,24.522-89.564,36.73-134.369,3.282-12.055.011-17.777-12.281-21.1-35.044-9.489-69.962-19.495-105.231-28.124a54.064,54.064,0,0,1-35.234-78.368c21.709-40.638,41.945-82.064,62.9-123.091,12.951-25.334,33.9-35.693,61.653-30.231,5,.977,9.875,3.2,14.469,5.521,13.524,6.84,27.557,12.985,40.1,21.331,12.182,8.111,22.919,18.423,34,28.1,10.644,9.288,20.816,19.106,31.4,28.454a19.149,19.149,0,0,0,8.04,4.132c18.388,4.25,36.884,8.076,55.282,12.314,16.1,3.708,26.795,17.058,26.889,33,.083,14.656-10.525,28.948-24.781,31.962a44.631,44.631,0,0,1-17.8.047c-22.331-4.6-44.6-9.559-66.7-15.163-5.979-1.519-11.843-5.051-16.74-8.935-11.054-8.782-21.461-18.365-32.161-27.582C-1348.752,364.4-1350.563,363.1-1352.79,361.356Z" transform="translate(1711.158 -109.12)" fill="#010101"/>
        <path id="Pfad_412" data-name="Pfad 412" d="M-1374.417,312.185c-.376,39.991-32.976,72.364-72.765,72.258-39.4-.106-72.578-33.151-72.388-72.094a73.266,73.266,0,0,1,74.508-73.153C-1406.322,239.573-1374.053,272.9-1374.417,312.185Z" transform="translate(1824.412 -239.193)" fill="#010101"/>
      </g>
    </g>
  </g>
</svg>
