<?xml version="1.0" encoding="UTF-8" standalone="no"?><!DOCTYPE svg PUBLIC "-//W3C//DTD SVG 1.1//EN" "http://www.w3.org/Graphics/SVG/1.1/DTD/svg11.dtd"><svg width="100%" height="100%" viewBox="0 0 30 30" version="1.1" xmlns="http://www.w3.org/2000/svg" xmlns:xlink="http://www.w3.org/1999/xlink" xml:space="preserve" style="fill-rule:evenodd;clip-rule:evenodd;stroke-linecap:round;stroke-miterlimit:10;"><g id="XMLID_2_"><path d="M15,28.9c-1.6,-3 -8,-9.4 -9.9,-13.5c-0.6,-1.3 -1,-2.7 -1,-4.2c0.1,-5.5 5,-10.1 10.9,-10.1c5.9,0 10.9,4.6 10.9,10.1c0,1.5 -0.4,2.9 -1,4.2c-1.9,4.1 -8.3,10.5 -9.9,13.5Z" style="fill:#10cd9b;fill-rule:nonzero;"/><g><path d="M5.1,15.4c-0.6,-1.3 -1,-2.7 -1,-4.2c0.1,-5.5 5,-10.1 10.9,-10.1c5.9,0 10.9,4.6 10.9,10.1c0,1.5 -0.4,2.9 -1,4.2" style="fill:#10cd9b;fill-rule:nonzero;stroke:#fff;stroke-width:2px;"/><path d="M15.1,28.9" style="fill:#10cd9b;fill-rule:nonzero;stroke:#fff;stroke-width:2px;"/><path d="M5.1,15.4c1.9,4.1 8.3,10.5 9.9,13.5" style="fill:#10cd9b;fill-rule:nonzero;stroke:#fff;stroke-width:2px;"/><path d="M24.9,15.4c-1.9,4.1 -8.3,10.5 -9.9,13.5" style="fill:#10cd9b;fill-rule:nonzero;stroke:#fff;stroke-width:2px;"/></g><circle cx="12.5" cy="7.5" r="2.5" style="fill:#fff;"/><circle cx="17.5" cy="7.5" r="2.5" style="fill:#fff;"/><circle cx="15" cy="6.5" r="2.5" style="fill:#fff;"/><circle cx="11" cy="10" r="2.5" style="fill:#fff;"/><circle cx="13.5" cy="10" r="2.5" style="fill:#fff;"/><circle cx="13.5" cy="11" r="2.5" style="fill:#fff;"/><circle cx="17" cy="11" r="2.5" style="fill:#fff;"/><circle cx="19.5" cy="10" r="2.5" style="fill:#fff;"/><rect x="14" y="11" width="2" height="11" style="fill:#fff;"/><path d="M17,21.25c0,-0.138 -0.112,-0.25 -0.25,-0.25l-3.5,0c-0.138,0 -0.25,0.112 -0.25,0.25l0,0.5c0,0.138 0.112,0.25 0.25,0.25l3.5,0c0.138,0 0.25,-0.112 0.25,-0.25l0,-0.5Z" style="fill:#fff;"/></g></svg>