<?xml version="1.0" encoding="utf-8"?>
<!-- Generator: Adobe Illustrator 24.0.1, SVG Export Plug-In . SVG Version: 6.00 Build 0)  -->
<svg version="1.1" id="Ebene_1" xmlns="http://www.w3.org/2000/svg" xmlns:xlink="http://www.w3.org/1999/xlink" x="0px" y="0px"
	 width="87px" height="41px" viewBox="0 0 87 41" style="enable-background:new 0 0 87 41;" xml:space="preserve">
<path d="M18.5,4.9c-1.7,0-3.3,0.9-4.2,2.3c-0.6-1.5-2.1-2.4-3.7-2.3c-1.6,0-3,0.8-3.7,2.2l0,0c-0.3-1.4-1.6-2.3-3-2.2H0.5v2.5h2.4
	c0.8,0,1.1,0.3,1.1,1v9.3h3v-6.1c0-1.4,0.1-4.1,2.6-4.1c1.3,0,2.2,0.7,2.2,2.6v7.6h3v-6.1c0-1.4,0-4.1,2.6-4.1
	c1.3,0,2.2,0.7,2.2,2.6v7.6h3V9.4C22.6,6.2,20.9,4.9,18.5,4.9"/>
<path d="M46.3,11.2c0-2.7-1.3-4-3-4s-3,1.1-3,4s1.3,4,3,4S46.3,13.9,46.3,11.2 M37.3,11.2c0-3.8,2-6.3,5.1-6.3c1.5,0,3,0.7,3.8,2
	V0.4h3v16.9h-2.9v-1.7c-0.9,1.3-2.4,2.1-3.9,2C39.4,17.5,37.3,15,37.3,11.2"/>
<path d="M51.5,17.2h2.9v-12h-2.9V17.2z M51.3,3.4h3.1v-3h-3.1V3.4z"/>
<path d="M63.8,12.3v-0.9c-2.5,0.3-4.6,0.8-4.6,2.5c0,0.9,0.6,1.5,1.8,1.5C62.5,15.4,63.8,14.5,63.8,12.3 M56.3,14.2
	c0-3.4,3.6-4.4,7.6-4.8V9c0-1.2-0.7-1.9-2.2-1.9c-1.3-0.1-2.5,0.7-2.8,2l-2.7-0.7c0.3-1.8,2.2-3.5,5.5-3.5c3.4,0,5.1,1.5,5.1,4.5
	v4.8c0,0.6,0.1,0.7,0.7,0.7h1.1v2.3h-2.3c-1,0.1-2-0.6-2.1-1.6c0-0.1,0-0.1,0-0.2c-0.9,1.4-2.4,2.2-4,2.1
	C57.9,17.6,56.3,16.3,56.3,14.2"/>
<rect x="70.3" y="0.4" width="2.9" height="16.9"/>
<path d="M83.5,9.8c0.1-1.4-1-2.6-2.4-2.7c-0.1,0-0.2,0-0.2,0c-1.5,0-2.8,1.2-2.8,2.7H83.5z M75,11.2c0-3.8,2.5-6.3,5.8-6.3
	c3.8,0,6,3.1,5.6,7.1h-8.5c0.1,2.4,1.4,3.3,3,3.3c1.3,0,2.5-0.9,2.9-2.2l2.6,1c-0.9,2.3-3.2,3.7-5.6,3.5
	C77.4,17.6,75.1,15.2,75,11.2"/>
<path d="M32.7,9.8c0.1-1.4-1-2.6-2.4-2.7c-0.1,0-0.2,0-0.2,0c-1.5,0-2.8,1.2-2.8,2.7H32.7z M24.2,11.2c0-3.8,2.5-6.3,5.8-6.3
	c3.8,0,6,3.1,5.6,7.1h-8.5c0.1,2.4,1.4,3.3,3,3.3c1.3,0,2.5-0.9,2.9-2.2l2.7,1c-0.9,2.3-3.2,3.7-5.6,3.5
	C26.6,17.6,24.3,15.2,24.2,11.2"/>
<path d="M12.7,30c0-3-1.3-4.1-3-4.1s-3,1.4-3,4c0,2.7,1.3,4.1,3,4.1S12.7,33,12.7,30 M3.9,24h2.9v1.7c0.9-1.3,2.4-2.1,3.9-2.1
	c3.1,0,5.1,2.5,5.1,6.4s-2,6.4-5.1,6.4c-1.6,0-3-0.7-3.8-2.1v6.4H3.9V24z"/>
<path d="M18.7,26.3h-2.4V24h2.4v-1.7c0-2,1-3.1,3-3.1H25v2.4h-2.3c-0.8,0-1.1,0.3-1.1,1.1V24h2.9v2.3h-2.9V36h-2.9V26.3z"/>
<path d="M33.4,31v-1c-2.5,0.3-4.6,0.8-4.6,2.5c0,0.9,0.6,1.5,1.8,1.5c1.5,0,2.8-1.2,2.8-2.7C33.4,31.2,33.4,31.1,33.4,31 M25.8,32.8
	c0-3.3,3.6-4.4,7.6-4.7v-0.4c0-1.2-0.7-1.9-2.2-1.9c-1.3-0.1-2.5,0.7-2.8,2l-2.7-0.7c0.3-1.8,2.2-3.5,5.5-3.5s5.1,1.5,5.1,4.5v4.8
	c0,0.6,0.1,0.7,0.7,0.7h1.2v2.3h-2.3c-1,0.2-2-0.5-2.2-1.6c0-0.1,0-0.2,0-0.2c-0.9,1.4-2.4,2.2-4,2.2C27.5,36.3,25.9,35,25.8,32.8"
	/>
<path d="M48.1,30c0-2.7-1.3-4.1-3-4.1s-3,1.1-3,4s1.3,4,3,4S48.1,32.7,48.1,30 M39,30c0-3.9,2-6.4,5.1-6.4c1.5,0,3,0.7,3.8,2v-6.5
	h2.9V36H48v-1.7c-0.9,1.3-2.4,2-3.9,2C41.1,36.3,39,33.8,39,30"/>
<path d="M61,28.5c0.1-1.4-1-2.6-2.4-2.7c-0.1,0-0.2,0-0.3,0c-1.5,0-2.8,1.2-2.8,2.7H61z M52.5,30c0-3.8,2.5-6.4,5.8-6.4
	c3.8,0,6,3.1,5.6,7.1h-8.5c0.1,2.4,1.4,3.3,3,3.3c1.3,0,2.5-0.9,2.9-2.2l2.6,1c-0.9,2.3-3.2,3.7-5.6,3.5C54.9,36.4,52.6,34,52.5,30"
	/>
</svg>
