<?xml version="1.0" encoding="UTF-8" standalone="no"?><!DOCTYPE svg PUBLIC "-//W3C//DTD SVG 1.1//EN" "http://www.w3.org/Graphics/SVG/1.1/DTD/svg11.dtd"><svg width="100%" height="100%" viewBox="0 0 567 567" version="1.1" xmlns="http://www.w3.org/2000/svg" xmlns:xlink="http://www.w3.org/1999/xlink" xml:space="preserve" style="fill-rule:evenodd;clip-rule:evenodd;stroke-linejoin:round;stroke-miterlimit:1.41421;"><path d="M273.83,211.03l-19.26,19.26l19.26,19.27l38.53,-38.53l-38.53,-38.52l-19.26,19.26l19.26,19.26Z" style="fill-rule:nonzero;"/><path d="M150,317.26l0,-9.82l17.12,0l0,10c1.032,-2.84 2.75,-5.383 5,-7.4c2.097,-2.234 4.998,-3.544 8.06,-3.64c2.372,-0.007 4.742,0.16 7.09,0.5l-0.91,13l-8.21,-1.52c-4.667,0.34 -8.077,2.367 -10.23,6.08l0,19.44l10.23,0l0,9.73l-28.15,0l0,-8.82l6.69,-1.82l0,-25.73l-6.69,0Z" style="fill-rule:nonzero;"/><path d="M214.44,344.71c4.9,-0.027 9.7,-1.393 13.88,-3.95l3.64,8.92c-5.269,3.334 -11.385,5.091 -17.62,5.06c-7.7,0 -13.39,-2.177 -17.07,-6.53c-3.68,-4.353 -5.52,-10.247 -5.52,-17.68c0,-6.947 1.84,-12.703 5.52,-17.27c3.68,-4.567 8.923,-6.843 15.73,-6.83c6.547,0 11.427,1.94 14.64,5.82c3.243,3.981 4.951,8.997 4.81,14.13c0.064,2.657 -0.209,5.311 -0.81,7.9l-27.93,0c-0.051,2.838 0.979,5.592 2.88,7.7c1.787,1.82 4.403,2.73 7.85,2.73Zm-10.63,-18.94l17.62,0c0.074,-0.47 0.107,-0.945 0.1,-1.42c0.14,-2.345 -0.748,-4.639 -2.43,-6.28c-1.664,-1.496 -3.844,-2.292 -6.08,-2.22c-5.667,0 -8.737,3.307 -9.21,9.92Z" style="fill-rule:nonzero;"/><path d="M252.37,316.45c-1.156,1.096 -2.708,1.681 -4.3,1.62c-1.609,0.056 -3.178,-0.527 -4.36,-1.62c-1.141,-1.071 -1.765,-2.586 -1.71,-4.15c-0.046,-1.579 0.579,-3.107 1.72,-4.2c1.168,-1.122 2.741,-1.725 4.36,-1.67c1.602,-0.063 3.16,0.542 4.3,1.67c1.115,1.107 1.721,2.63 1.67,4.2c0.054,1.558 -0.557,3.068 -1.68,4.15l0,0Zm-4.3,37.88c-1.619,0.055 -3.192,-0.548 -4.36,-1.67c-1.141,-1.093 -1.766,-2.621 -1.72,-4.2c-0.053,-1.566 0.575,-3.08 1.72,-4.15c1.182,-1.093 2.751,-1.676 4.36,-1.62c1.592,-0.061 3.144,0.524 4.3,1.62c1.119,1.084 1.726,2.593 1.67,4.15c0.046,1.579 -0.579,3.107 -1.72,4.2c-1.131,1.109 -2.666,1.712 -4.25,1.67Z" style="fill-rule:nonzero;"/><path d="M285.85,347.85c5.325,-0.095 10.491,-1.842 14.78,-5l2.64,6.28c-5.127,3.622 -11.252,5.569 -17.53,5.57c-7.293,0 -12.627,-2.16 -16,-6.48c-3.373,-4.32 -5.06,-10.263 -5.06,-17.83c0,-7.093 1.72,-12.867 5.16,-17.32c3.44,-4.453 8.47,-6.68 15.09,-6.68c6.08,0 10.673,1.89 13.78,5.67c3.142,3.888 4.796,8.773 4.66,13.77c-0.021,2.375 -0.225,4.746 -0.61,7.09l-30,0c0.213,9.96 4.577,14.937 13.09,14.93Zm-13,-21l22.79,0c0.117,-0.661 0.184,-1.329 0.2,-2c0.159,-3.123 -0.891,-6.19 -2.93,-8.56c-2.078,-2.17 -4.999,-3.335 -8,-3.19c-7.407,0.007 -11.417,4.603 -12.03,13.79l-0.03,-0.04Z" style="fill-rule:nonzero;"/><path d="M345.5,312l0,-22l-9.5,0l0,-6.89l17.1,0l0,63.71l7,0l0,6.79l-6.6,0c-4.52,0 -6.883,-2.13 -7.09,-6.39c-3.853,5 -8.713,7.5 -14.58,7.5c-6.48,0 -11.327,-2.11 -14.54,-6.33c-3.213,-4.22 -4.817,-10.22 -4.81,-18c0,-7.56 1.637,-13.45 4.91,-17.67c3.273,-4.22 8.187,-6.33 14.74,-6.33c5.913,0.027 10.37,1.897 13.37,5.61Zm-25,18.43c0,11.333 4.39,17 13.17,17c4.704,0.042 9.14,-2.234 11.85,-6.08l0,-22.06c-2.627,-3.713 -6.543,-5.57 -11.75,-5.57c-8.867,0 -13.297,5.57 -13.29,16.71l0.02,0Z" style="fill-rule:nonzero;"/><path d="M409.82,307.44l0,39.3l7.08,0l0,6.89l-13.47,0l0,-7.4c-1.877,2.478 -4.264,4.524 -7,6c-3.084,1.702 -6.558,2.574 -10.08,2.53c-5.267,0 -9.033,-1.453 -11.3,-4.36c-2.267,-2.907 -3.397,-7.397 -3.39,-13.47l0,-22.7l-7.49,0l0,-6.79l15.09,0l0,28.87c0,3.78 0.623,6.563 1.87,8.35c1.25,1.79 3.76,2.69 7.55,2.69c2.816,0.001 5.587,-0.715 8.05,-2.08c2.262,-1.131 4.171,-2.861 5.52,-5l0,-26l-9.45,0l0,-6.79l17.02,-0.04Z" style="fill-rule:nonzero;"/><path d="M150,378.83l0,-1.74l3.56,0l0,2.51c0.291,-0.738 0.754,-1.396 1.35,-1.92c0.537,-0.523 1.251,-0.827 2,-0.85c0.637,-0.003 1.273,0.051 1.9,0.16l-0.24,2.36l-1.92,-0.49c-0.623,0.067 -1.215,0.306 -1.71,0.69c-0.552,0.41 -0.995,0.949 -1.29,1.57l0,5.95l2.79,0l0,1.72l-6.44,0l0,-1.54l1.74,-0.36l0,-8.06l-1.74,0Z" style="fill-rule:nonzero;"/><path d="M165.63,387.33c1.35,-0.02 2.662,-0.46 3.75,-1.26l0.67,1.6c-1.299,0.917 -2.85,1.41 -4.44,1.41c-1.538,0.131 -3.049,-0.483 -4.06,-1.65c-0.919,-1.318 -1.37,-2.906 -1.28,-4.51c-0.074,-1.569 0.388,-3.118 1.31,-4.39c0.92,-1.153 2.347,-1.788 3.82,-1.7c1.324,-0.093 2.617,0.441 3.49,1.44c0.801,0.984 1.223,2.222 1.19,3.49c-0.008,0.603 -0.062,1.205 -0.16,1.8l-7.6,0c0.05,2.51 1.16,3.77 3.31,3.77Zm-3.28,-5.33l5.77,0c0.036,-0.171 0.056,-0.345 0.06,-0.52c0.039,-0.793 -0.23,-1.571 -0.75,-2.17c-0.523,-0.538 -1.251,-0.829 -2,-0.8c-1.9,0.013 -2.927,1.177 -3.08,3.49Z" style="fill-rule:nonzero;"/><path d="M177.73,387.33c1.347,-0.022 2.655,-0.462 3.74,-1.26l0.67,1.6c-1.299,0.917 -2.85,1.41 -4.44,1.41c-1.538,0.131 -3.049,-0.483 -4.06,-1.65c-0.919,-1.318 -1.37,-2.906 -1.28,-4.51c-0.068,-1.569 0.393,-3.115 1.31,-4.39c0.92,-1.153 2.347,-1.788 3.82,-1.7c1.326,-0.091 2.622,0.442 3.5,1.44c0.793,0.987 1.211,2.224 1.18,3.49c-0.003,0.603 -0.056,1.206 -0.16,1.8l-7.6,0c0.06,2.51 1.16,3.77 3.32,3.77Zm-3.29,-5.33l5.78,0c0.028,-0.172 0.045,-0.346 0.05,-0.52c0.039,-0.793 -0.23,-1.571 -0.75,-2.17c-0.522,-0.539 -1.25,-0.83 -2,-0.8c-1.9,0.013 -2.927,1.177 -3.08,3.49Z" style="fill-rule:nonzero;"/><path d="M184.35,388.79l0,-1.72l1.65,0l0,-8.24l-1.67,0l0,-1.74l3.44,0l0,1.31c1.08,-1.089 2.579,-1.662 4.11,-1.57c1.112,-0.104 2.214,0.296 3,1.09c0.67,1.001 0.984,2.199 0.89,3.4l0,5.75l1.67,0l0,1.72l-5.57,0l0,-1.72l2,0l0,-5.59c0.055,-0.741 -0.12,-1.482 -0.5,-2.12c-0.527,-0.521 -1.265,-0.772 -2,-0.68c-0.657,0.001 -1.308,0.123 -1.92,0.36c-0.546,0.186 -1.052,0.474 -1.49,0.85l0,7.18l1.95,0l0,1.72l-5.56,0Z" style="fill-rule:nonzero;"/><path d="M210.38,377.83l-2.47,0.82c0.654,0.742 0.988,1.713 0.93,2.7c0.063,1.162 -0.405,2.292 -1.27,3.07c-1.001,0.773 -2.247,1.161 -3.51,1.09c-0.677,0.032 -1.354,-0.056 -2,-0.26l-0.36,2.08l3.85,0c1.04,-0.071 2.074,0.215 2.93,0.81c0.679,0.573 1.049,1.433 1,2.32c0.02,1.198 -0.568,2.328 -1.56,3c-1.234,0.811 -2.695,1.207 -4.17,1.13c-3.37,0 -5.06,-1.07 -5.06,-3.19c-0.006,-0.616 0.219,-1.211 0.63,-1.67c0.369,-0.441 0.854,-0.77 1.4,-0.95c-0.554,-0.239 -0.894,-0.81 -0.84,-1.41c0.057,-0.942 0.525,-1.813 1.28,-2.38c-1.36,-0.711 -2.169,-2.171 -2.05,-3.7c-0.063,-1.218 0.4,-2.406 1.27,-3.26c1.019,-0.871 2.342,-1.306 3.68,-1.21c1.06,-0.063 2.112,0.217 3,0.8c0.713,-1.026 1.891,-1.634 3.14,-1.62l0.18,1.83Zm-8.47,11.27c-0.712,0.372 -1.174,1.097 -1.21,1.9c0,1.33 1,2 3.13,2c0.909,0.041 1.813,-0.159 2.62,-0.58c0.637,-0.326 1.028,-0.995 1,-1.71c0,-1.06 -0.73,-1.59 -2.18,-1.59l-3.36,-0.02Zm2.09,-5.1c1.92,0 2.87,-0.89 2.87,-2.67c0.039,-0.731 -0.208,-1.449 -0.69,-2c-0.591,-0.54 -1.382,-0.808 -2.18,-0.74c-2,0 -2.95,0.9 -2.95,2.72c0,1.82 1.02,2.69 2.95,2.69Z" style="fill-rule:nonzero;"/><path d="M211.41,388.79l0,-1.72l2.59,0l0,-8.24l-2.56,0l0,-1.74l4.49,0l0,10l2.44,0l0,1.72l-6.96,-0.02Zm3.39,-14.6c-1,0 -1.42,-0.46 -1.42,-1.36c-0.007,-0.055 -0.011,-0.11 -0.011,-0.165c0,-0.68 0.56,-1.24 1.24,-1.24c0.064,0 0.128,0.005 0.191,0.015c0.366,-0.016 0.724,0.11 1,0.35c0.274,0.258 0.42,0.624 0.4,1c0.026,0.377 -0.121,0.745 -0.4,1c-0.268,0.258 -0.627,0.402 -1,0.4l0,0Z" style="fill-rule:nonzero;"/><path d="M219.77,388.79l0,-1.72l1.7,0l0,-8.24l-1.67,0l0,-1.74l3.44,0l0,1.31c1.079,-1.09 2.579,-1.663 4.11,-1.57c1.112,-0.107 2.216,0.294 3,1.09c0.678,0.998 0.996,2.198 0.9,3.4l0,5.75l1.67,0l0,1.72l-5.57,0l0,-1.72l2,0l0,-5.59c0.06,-0.742 -0.115,-1.484 -0.5,-2.12c-0.525,-0.525 -1.264,-0.776 -2,-0.68c-0.66,0.002 -1.314,0.124 -1.93,0.36c-0.545,0.188 -1.05,0.477 -1.49,0.85l0,7.18l2,0l0,1.72l-5.66,0Z" style="fill-rule:nonzero;"/><path d="M240,387.33c1.35,-0.021 2.661,-0.462 3.75,-1.26l0.67,1.6c-1.299,0.917 -2.85,1.41 -4.44,1.41c-1.538,0.131 -3.049,-0.483 -4.06,-1.65c-0.924,-1.315 -1.375,-2.906 -1.28,-4.51c-0.074,-1.569 0.388,-3.118 1.31,-4.39c0.919,-1.155 2.347,-1.79 3.82,-1.7c1.324,-0.093 2.617,0.441 3.49,1.44c0.798,0.985 1.217,2.223 1.18,3.49c-0.004,0.603 -0.054,1.205 -0.15,1.8l-7.6,0c0.02,2.513 1.123,3.77 3.31,3.77Zm-3.33,-5.33l5.77,0c0.033,-0.171 0.05,-0.345 0.05,-0.52c0.038,-0.791 -0.227,-1.567 -0.74,-2.17c-0.523,-0.538 -1.251,-0.829 -2,-0.8c-1.9,0.013 -2.927,1.177 -3.08,3.49Z" style="fill-rule:nonzero;"/><path d="M252,387.33c1.35,-0.02 2.662,-0.46 3.75,-1.26l0.67,1.6c-1.299,0.917 -2.85,1.41 -4.44,1.41c-1.538,0.131 -3.049,-0.483 -4.06,-1.65c-0.919,-1.318 -1.37,-2.906 -1.28,-4.51c-0.074,-1.569 0.388,-3.118 1.31,-4.39c0.92,-1.153 2.347,-1.788 3.82,-1.7c1.324,-0.093 2.617,0.441 3.49,1.44c0.798,0.985 1.217,2.223 1.18,3.49c-0.004,0.603 -0.054,1.205 -0.15,1.8l-7.6,0c0.09,2.51 1.2,3.77 3.31,3.77Zm-3.24,-5.33l5.77,0c0.033,-0.171 0.05,-0.345 0.05,-0.52c0.043,-0.791 -0.223,-1.57 -0.74,-2.17c-0.523,-0.538 -1.251,-0.829 -2,-0.8c-1.893,0.013 -2.92,1.177 -3.08,3.49Z" style="fill-rule:nonzero;"/><path d="M258.67,378.83l0,-1.74l3.57,0l0,2.51c0.285,-0.739 0.745,-1.398 1.34,-1.92c0.537,-0.523 1.251,-0.827 2,-0.85c0.637,-0.003 1.273,0.051 1.9,0.16l-0.23,2.36l-1.93,-0.49c-0.623,0.067 -1.215,0.306 -1.71,0.69c-0.549,0.412 -0.992,0.951 -1.29,1.57l0,5.95l2.8,0l0,1.72l-6.47,0l0,-1.54l1.74,-0.36l0,-8.06l-1.72,0Z" style="fill-rule:nonzero;"/><path d="M268.76,388.79l0,-1.72l2.56,0l0,-8.24l-2.56,0l0,-1.74l4.49,0l0,10l2.44,0l0,1.72l-6.93,-0.02Zm3.38,-14.6c-0.039,0.003 -0.078,0.005 -0.117,0.005c-0.757,0 -1.38,-0.623 -1.38,-1.38c0,-0.757 0.623,-1.38 1.38,-1.38c0.039,0 0.078,0.002 0.117,0.005c0.366,-0.015 0.723,0.111 1,0.35c0.274,0.258 0.42,0.624 0.4,1c0.026,0.377 -0.121,0.745 -0.4,1c-0.269,0.258 -0.628,0.401 -1,0.4Z" style="fill-rule:nonzero;"/><path d="M277.12,388.79l0,-1.72l1.7,0l0,-8.24l-1.67,0l0,-1.74l3.44,0l0,1.31c1.079,-1.09 2.579,-1.663 4.11,-1.57c1.112,-0.107 2.216,0.294 3,1.09c0.678,0.998 0.996,2.198 0.9,3.4l0,5.75l1.67,0l0,1.72l-5.57,0l0,-1.72l2,0l0,-5.59c0.06,-0.742 -0.115,-1.484 -0.5,-2.12c-0.525,-0.525 -1.264,-0.776 -2,-0.68c-0.66,0.002 -1.314,0.124 -1.93,0.36c-0.545,0.188 -1.05,0.477 -1.49,0.85l0,7.18l1.95,0l0,1.72l-5.61,0Z" style="fill-rule:nonzero;"/><path d="M303.16,377.83l-2.47,0.82c0.654,0.742 0.988,1.713 0.93,2.7c0.063,1.164 -0.409,2.296 -1.28,3.07c-0.996,0.774 -2.24,1.162 -3.5,1.09c-0.677,0.029 -1.353,-0.059 -2,-0.26l-0.36,2.08l3.85,0c1.04,-0.072 2.075,0.214 2.93,0.81c0.683,0.57 1.054,1.432 1,2.32c0.019,1.195 -0.564,2.324 -1.55,3c-1.236,0.807 -2.696,1.202 -4.17,1.13c-3.37,0 -5.06,-1.07 -5.06,-3.19c-0.006,-0.616 0.219,-1.211 0.63,-1.67c0.369,-0.441 0.854,-0.77 1.4,-0.95c-0.557,-0.236 -0.902,-0.807 -0.85,-1.41c0.076,-0.948 0.566,-1.816 1.34,-2.37c-1.363,-0.708 -2.177,-2.168 -2.06,-3.7c-0.063,-1.218 0.4,-2.406 1.27,-3.26c1.024,-0.87 2.35,-1.305 3.69,-1.21c1.06,-0.064 2.113,0.217 3,0.8c0.705,-1.016 1.864,-1.625 3.1,-1.63l0.16,1.83Zm-8.48,11.27c-0.701,0.373 -1.157,1.087 -1.2,1.88c0,1.33 1,2 3.13,2c0.909,0.041 1.813,-0.159 2.62,-0.58c0.637,-0.326 1.028,-0.995 1,-1.71c0,-1.06 -0.73,-1.59 -2.18,-1.59l-3.37,0Zm2.13,-5.13c1.92,0 2.88,-0.89 2.88,-2.67c0.039,-0.731 -0.208,-1.449 -0.69,-2c-0.596,-0.539 -1.389,-0.807 -2.19,-0.74c-2,0 -2.95,0.9 -2.95,2.72c0,1.82 0.99,2.72 2.95,2.72l0,-0.03Z" style="fill-rule:nonzero;"/><path d="M314.94,387.33c1.35,-0.023 2.66,-0.463 3.75,-1.26l0.66,1.6c-1.299,0.917 -2.85,1.41 -4.44,1.41c-1.535,0.133 -3.044,-0.482 -4.05,-1.65c-0.927,-1.314 -1.382,-2.904 -1.29,-4.51c-0.068,-1.569 0.393,-3.115 1.31,-4.39c0.925,-1.153 2.354,-1.788 3.83,-1.7c1.323,-0.091 2.616,0.442 3.49,1.44c0.798,0.985 1.217,2.223 1.18,3.49c-0.004,0.603 -0.054,1.205 -0.15,1.8l-7.6,0c0.053,2.513 1.157,3.77 3.31,3.77Zm-3.29,-5.33l5.78,0c0.028,-0.172 0.045,-0.346 0.05,-0.52c0.038,-0.791 -0.227,-1.567 -0.74,-2.17c-0.524,-0.535 -1.251,-0.826 -2,-0.8c-1.9,0.013 -2.93,1.177 -3.09,3.49Z" style="fill-rule:nonzero;"/><path d="M330.06,378.24l0,-5.57l-2.41,0l0,-1.74l4.35,0l0,16.14l1.78,0l0,1.72l-1.67,0c-1.15,0 -1.75,-0.53 -1.8,-1.61c-0.849,1.197 -2.232,1.907 -3.7,1.9c-1.415,0.099 -2.792,-0.503 -3.68,-1.61c-0.89,-1.344 -1.318,-2.941 -1.22,-4.55c-0.094,-1.591 0.346,-3.168 1.25,-4.48c0.909,-1.108 2.301,-1.709 3.73,-1.61c1.282,-0.087 2.532,0.436 3.37,1.41l0,0Zm-6.34,4.68c0,2.873 1.113,4.31 3.34,4.31c1.19,0.007 2.312,-0.569 3,-1.54l0,-5.6c-0.689,-0.955 -1.825,-1.488 -3,-1.41c-2.227,0 -3.34,1.413 -3.34,4.24Z" style="fill-rule:nonzero;"/><path d="M346.36,377.09l0,10l1.8,0l0,1.74l-3.42,0l0,-1.87c-0.475,0.628 -1.083,1.144 -1.78,1.51c-0.778,0.436 -1.658,0.661 -2.55,0.65c-1.078,0.106 -2.144,-0.307 -2.87,-1.11c-0.65,-1.013 -0.952,-2.21 -0.86,-3.41l0,-5.75l-1.9,0l0,-1.72l3.83,0l0,7.31c-0.053,0.737 0.111,1.474 0.47,2.12c0.491,0.525 1.208,0.779 1.92,0.68c0.699,-0.006 1.386,-0.184 2,-0.52c0.571,-0.292 1.054,-0.731 1.4,-1.27l0,-6.6l-2.39,0l0,-1.72l4.35,-0.04Z" style="fill-rule:nonzero;"/><path d="M355.29,387.25c1.336,0.008 2.647,-0.363 3.78,-1.07l0.56,1.66c-1.373,0.816 -2.943,1.244 -4.54,1.24c-1.516,0.11 -2.993,-0.529 -3.95,-1.71c-0.925,-1.294 -1.386,-2.862 -1.31,-4.45c-0.066,-1.571 0.419,-3.117 1.37,-4.37c0.98,-1.18 2.469,-1.821 4,-1.72c1.478,0 2.936,0.343 4.26,1l-0.43,4l-1.57,0l0,-2.88c-0.715,-0.256 -1.471,-0.378 -2.23,-0.36c-0.968,-0.07 -1.905,0.37 -2.47,1.16c-0.57,0.922 -0.846,1.997 -0.79,3.08c0.02,2.947 1.127,4.42 3.32,4.42Z" style="fill-rule:nonzero;"/><path d="M364.2,379.07l0,2l-1.64,0c-0.224,-0.546 -0.339,-1.13 -0.34,-1.72c0.007,-0.774 0.437,-1.485 1.12,-1.85c1.008,-0.519 2.138,-0.758 3.27,-0.69c0.78,-0.02 1.56,0.061 2.32,0.24c0.517,0.128 0.976,0.428 1.3,0.85c0.292,0.397 0.49,0.855 0.58,1.34c0.111,0.661 0.158,1.33 0.14,2l0,5.08c0,0.58 0.24,0.87 0.72,0.87c0.302,-0.007 0.603,-0.04 0.9,-0.1l0,1.72c-0.481,0.095 -0.97,0.138 -1.46,0.13c-0.517,0.025 -1.025,-0.138 -1.43,-0.46c-0.359,-0.334 -0.568,-0.8 -0.58,-1.29c-0.961,1.222 -2.446,1.92 -4,1.88c-0.968,0.069 -1.924,-0.248 -2.66,-0.88c-0.627,-0.64 -0.958,-1.515 -0.91,-2.41c-0.058,-1.022 0.47,-1.993 1.36,-2.5c1.245,-0.637 2.605,-1.014 4,-1.11l2.07,-0.24l0,-2.87c-0.734,-0.364 -1.552,-0.526 -2.37,-0.47c-0.823,-0.029 -1.642,0.135 -2.39,0.48Zm-0.59,6.59c0,1.15 0.66,1.72 2,1.72c1.271,0.026 2.499,-0.473 3.39,-1.38l0,-2.63l-2,0.27c-0.899,0.08 -1.776,0.321 -2.59,0.71c-0.492,0.25 -0.803,0.758 -0.8,1.31l0,0Z" style="fill-rule:nonzero;"/><path d="M377.58,378.83l0,6.63c0,1.18 0.52,1.77 1.56,1.77c0.629,0.032 1.258,-0.046 1.86,-0.23l0.2,1.72c-0.803,0.294 -1.655,0.433 -2.51,0.41c-0.859,0.067 -1.703,-0.27 -2.28,-0.91c-0.517,-0.731 -0.775,-1.615 -0.73,-2.51l0,-6.83l-2.23,0l0,-1.49l2.23,-0.25l0,-2.95l1.93,-0.36l0,3.31l3.18,0l0,1.74l-3.21,-0.05Z" style="fill-rule:nonzero;"/><path d="M382.61,388.79l0,-1.72l2.57,0l0,-8.24l-2.57,0l0,-1.74l4.49,0l0,10l2.44,0l0,1.72l-6.93,-0.02Zm3.39,-14.6c-0.95,0 -1.42,-0.46 -1.42,-1.36c-0.007,-0.055 -0.011,-0.11 -0.011,-0.165c0,-0.68 0.56,-1.24 1.24,-1.24c0.064,0 0.128,0.005 0.191,0.015c0.365,-0.011 0.721,0.114 1,0.35c0.267,0.262 0.409,0.626 0.39,1c0.026,0.375 -0.118,0.742 -0.39,1c-0.271,0.255 -0.628,0.398 -1,0.4Z" style="fill-rule:nonzero;"/><path d="M396.34,376.83c3.54,0 5.31,2.03 5.31,6.09c0,4.1 -1.78,6.16 -5.36,6.16c-1.519,0.123 -3.009,-0.492 -4,-1.65c-0.91,-1.314 -1.357,-2.894 -1.27,-4.49c-0.013,-4.067 1.76,-6.103 5.32,-6.11Zm0,10.45c0.975,0.103 1.936,-0.311 2.53,-1.09c0.553,-0.99 0.806,-2.119 0.73,-3.25c0.078,-1.132 -0.18,-2.263 -0.74,-3.25c-0.613,-0.759 -1.57,-1.158 -2.54,-1.06c-0.965,-0.099 -1.916,0.301 -2.52,1.06c-0.568,0.977 -0.829,2.103 -0.75,3.23c-0.074,1.141 0.19,2.279 0.76,3.27c0.601,0.772 1.557,1.183 2.53,1.09l0,0Z" style="fill-rule:nonzero;"/><path d="M403.76,388.79l0,-1.72l1.69,0l0,-8.24l-1.66,0l0,-1.74l3.44,0l0,1.31c1.076,-1.09 2.572,-1.663 4.1,-1.57c1.112,-0.106 2.215,0.295 3,1.09c0.678,0.998 0.996,2.198 0.9,3.4l0,5.75l1.66,0l0,1.72l-5.57,0l0,-1.72l2,0l0,-5.59c0.055,-0.741 -0.12,-1.482 -0.5,-2.12c-0.526,-0.522 -1.265,-0.773 -2,-0.68c-0.657,0.001 -1.308,0.123 -1.92,0.36c-0.545,0.188 -1.05,0.477 -1.49,0.85l0,7.18l1.95,0l0,1.72l-5.6,0Z" style="fill-rule:nonzero;"/></svg>